REM DIRINDEX 1\2,1\3,1\4
REM DIRNAME folder01,folder02,folder03,folder04
TITLE ""
FILE "CD1Track32.mp3" MP3
  TRACK 01 AUDIO
    TITLE "0:"
    INDEX 01 00:00:00
  TRACK 02 AUDIO
    TITLE "2:cjc075_0255"
    INDEX 01 00:00:19
  TRACK 03 AUDIO
    TITLE "2:cjc075_0256"
    INDEX 01 00:06:71
  TRACK 04 AUDIO
    TITLE "2:cjc075_0257"
    INDEX 01 00:22:42
  TRACK 05 AUDIO
    TITLE "0:"
    INDEX 01 00:29:48
